<svg width="2005" height="4042" xmlns="http://www.w3.org/2000/svg" xmlns:xlink="http://www.w3.org/1999/xlink" overflow="hidden"><defs><filter id="fx0" x="-10%" y="-10%" width="120%" height="120%" filterUnits="userSpaceOnUse" primitiveUnits="userSpaceOnUse"><feComponentTransfer color-interpolation-filters="sRGB"><feFuncR type="discrete" tableValues="0 0"/><feFuncG type="discrete" tableValues="0 0"/><feFuncB type="discrete" tableValues="0 0"/><feFuncA type="linear" slope="0.388235" intercept="0"/></feComponentTransfer><feGaussianBlur stdDeviation="6.11111 6.11111"/></filter><filter id="fx1" x="-10%" y="-10%" width="120%" height="120%" filterUnits="userSpaceOnUse" primitiveUnits="userSpaceOnUse"><feComponentTransfer color-interpolation-filters="sRGB"><feFuncR type="discrete" tableValues="0 0"/><feFuncG type="discrete" tableValues="0 0"/><feFuncB type="discrete" tableValues="0 0"/><feFuncA type="linear" slope="0.388235" intercept="0"/></feComponentTransfer><feGaussianBlur stdDeviation="6.11111 6.11111"/></filter><filter id="fx2" x="-10%" y="-10%" width="120%" height="120%" filterUnits="userSpaceOnUse" primitiveUnits="userSpaceOnUse"><feComponentTransfer color-interpolation-filters="sRGB"><feFuncR type="discrete" tableValues="0 0"/><feFuncG type="discrete" tableValues="0 0"/><feFuncB type="discrete" tableValues="0 0"/><feFuncA type="linear" slope="0.388235" intercept="0"/></feComponentTransfer><feGaussianBlur stdDeviation="6.11111 6.11111"/></filter><filter id="fx3" x="-10%" y="-10%" width="120%" height="120%" filterUnits="userSpaceOnUse" primitiveUnits="userSpaceOnUse"><feComponentTransfer color-interpolation-filters="sRGB"><feFuncR type="discrete" tableValues="0 0"/><feFuncG type="discrete" tableValues="0 0"/><feFuncB type="discrete" tableValues="0 0"/><feFuncA type="linear" slope="0.388235" intercept="0"/></feComponentTransfer><feGaussianBlur stdDeviation="6.11111 6.11111"/></filter><filter id="fx4" x="-10%" y="-10%" width="120%" height="120%" filterUnits="userSpaceOnUse" primitiveUnits="userSpaceOnUse"><feComponentTransfer color-interpolation-filters="sRGB"><feFuncR type="discrete" tableValues="0 0"/><feFuncG type="discrete" tableValues="0 0"/><feFuncB type="discrete" tableValues="0 0"/><feFuncA type="linear" slope="0.388235" intercept="0"/></feComponentTransfer><feGaussianBlur stdDeviation="6.11111 6.11111"/></filter><filter id="fx5" x="-10%" y="-10%" width="120%" height="120%" filterUnits="userSpaceOnUse" primitiveUnits="userSpaceOnUse"><feComponentTransfer color-interpolation-filters="sRGB"><feFuncR type="discrete" tableValues="0 0"/><feFuncG type="discrete" tableValues="0 0"/><feFuncB type="discrete" tableValues="0 0"/><feFuncA type="linear" slope="0.388235" intercept="0"/></feComponentTransfer><feGaussianBlur stdDeviation="6.11111 6.11111"/></filter><filter id="fx6" x="-10%" y="-10%" width="120%" height="120%" filterUnits="userSpaceOnUse" primitiveUnits="userSpaceOnUse"><feComponentTransfer color-interpolation-filters="sRGB"><feFuncR type="discrete" tableValues="0 0"/><feFuncG type="discrete" tableValues="0 0"/><feFuncB type="discrete" tableValues="0 0"/><feFuncA type="linear" slope="0.388235" intercept="0"/></feComponentTransfer><feGaussianBlur stdDeviation="6.11111 6.11111"/></filter><filter id="fx7" x="-10%" y="-10%" width="120%" height="120%" filterUnits="userSpaceOnUse" primitiveUnits="userSpaceOnUse"><feComponentTransfer color-interpolation-filters="sRGB"><feFuncR type="discrete" tableValues="0 0"/><feFuncG type="discrete" tableValues="0 0"/><feFuncB type="discrete" tableValues="0 0"/><feFuncA type="linear" slope="0.388235" intercept="0"/></feComponentTransfer><feGaussianBlur stdDeviation="6.11111 6.11111"/></filter><clipPath id="clip8"><rect x="1362" y="138" width="2005" height="4042"/></clipPath><clipPath id="clip9"><path d="M1939 149.5C1912.21 149.5 1890.5 171.215 1890.5 198.001L1890.5 391.999C1890.5 418.785 1912.21 440.5 1939 440.5L3264 440.5C3290.79 440.5 3312.5 418.785 3312.5 391.999L3312.5 198.001C3312.5 171.215 3290.79 149.5 3264 149.5ZM1362 138 3367 138 3367 4180 1362 4180Z" fill-rule="evenodd" clip-rule="evenodd"/></clipPath><clipPath id="clip10"><rect x="-3" y="-3" width="1487" height="344"/></clipPath><clipPath id="clip11"><rect x="0" y="0" width="1481" height="338"/></clipPath><linearGradient x1="1601.48" y1="4180" x2="1601.48" y2="149" gradientUnits="userSpaceOnUse" spreadMethod="reflect" id="fill12"><stop offset="0" stop-color="#6F6F6F"/><stop offset="0.31" stop-color="#A8A8A8"/><stop offset="0.5" stop-color="#C9C9C9"/><stop offset="1" stop-color="#C9C9C9"/></linearGradient><clipPath id="clip13"><path d="M1939 617.5C1912.21 617.5 1890.5 639.215 1890.5 666.001L1890.5 859.999C1890.5 886.785 1912.21 908.5 1939 908.5L3264 908.5C3290.79 908.5 3312.5 886.785 3312.5 859.999L3312.5 666.001C3312.5 639.215 3290.79 617.5 3264 617.5ZM1362 138 3367 138 3367 4180 1362 4180Z" fill-rule="evenodd" clip-rule="evenodd"/></clipPath><clipPath id="clip14"><rect x="-3" y="-3" width="1487" height="344"/></clipPath><clipPath id="clip15"><rect x="0" y="0" width="1481" height="338"/></clipPath><clipPath id="clip16"><path d="M1947 1084.5C1920.21 1084.5 1898.5 1106.21 1898.5 1133L1898.5 1327C1898.5 1353.79 1920.21 1375.5 1947 1375.5L3273 1375.5C3299.79 1375.5 3321.5 1353.79 3321.5 1327L3321.5 1133C3321.5 1106.21 3299.79 1084.5 3273 1084.5ZM1362 138 3367 138 3367 4180 1362 4180Z" fill-rule="evenodd" clip-rule="evenodd"/></clipPath><clipPath id="clip17"><rect x="-3" y="-3" width="1487" height="344"/></clipPath><clipPath id="clip18"><rect x="0" y="0" width="1482" height="338"/></clipPath><clipPath id="clip19"><path d="M1947 1552.5C1920.21 1552.5 1898.5 1574.21 1898.5 1601L1898.5 1795C1898.5 1821.79 1920.21 1843.5 1947 1843.5L3273 1843.5C3299.79 1843.5 3321.5 1821.79 3321.5 1795L3321.5 1601C3321.5 1574.21 3299.79 1552.5 3273 1552.5ZM1362 138 3367 138 3367 4180 1362 4180Z" fill-rule="evenodd" clip-rule="evenodd"/></clipPath><clipPath id="clip20"><rect x="-3" y="-3" width="1487" height="344"/></clipPath><clipPath id="clip21"><rect x="0" y="0" width="1482" height="338"/></clipPath><clipPath id="clip22"><path d="M1947 2035.5C1920.21 2035.5 1898.5 2057.21 1898.5 2084L1898.5 2278C1898.5 2304.79 1920.21 2326.5 1947 2326.5L3273 2326.5C3299.79 2326.5 3321.5 2304.79 3321.5 2278L3321.5 2084C3321.5 2057.21 3299.79 2035.5 3273 2035.5ZM1362 138 3367 138 3367 4180 1362 4180Z" fill-rule="evenodd" clip-rule="evenodd"/></clipPath><clipPath id="clip23"><rect x="-3" y="-3" width="1487" height="344"/></clipPath><clipPath id="clip24"><rect x="0" y="0" width="1482" height="338"/></clipPath><clipPath id="clip25"><path d="M1939 2518.5C1912.21 2518.5 1890.5 2540.21 1890.5 2567L1890.5 2761C1890.5 2787.79 1912.21 2809.5 1939 2809.5L3264 2809.5C3290.79 2809.5 3312.5 2787.79 3312.5 2761L3312.5 2567C3312.5 2540.21 3290.79 2518.5 3264 2518.5ZM1362 138 3367 138 3367 4180 1362 4180Z" fill-rule="evenodd" clip-rule="evenodd"/></clipPath><clipPath id="clip26"><rect x="-3" y="-3" width="1487" height="344"/></clipPath><clipPath id="clip27"><rect x="0" y="0" width="1481" height="338"/></clipPath><clipPath id="clip28"><path d="M1939 3002.5C1912.21 3002.5 1890.5 3024.21 1890.5 3051L1890.5 3245C1890.5 3271.79 1912.21 3293.5 1939 3293.5L3264 3293.5C3290.79 3293.5 3312.5 3271.79 3312.5 3245L3312.5 3051C3312.5 3024.21 3290.79 3002.5 3264 3002.5ZM1362 138 3367 138 3367 4180 1362 4180Z" fill-rule="evenodd" clip-rule="evenodd"/></clipPath><clipPath id="clip29"><rect x="-3" y="-3" width="1487" height="344"/></clipPath><clipPath id="clip30"><rect x="0" y="0" width="1481" height="338"/></clipPath><clipPath id="clip31"><path d="M1939 3485.5C1912.21 3485.5 1890.5 3507.21 1890.5 3534L1890.5 3728C1890.5 3754.79 1912.21 3776.5 1939 3776.5L3264 3776.5C3290.79 3776.5 3312.5 3754.79 3312.5 3728L3312.5 3534C3312.5 3507.21 3290.79 3485.5 3264 3485.5ZM1362 138 3367 138 3367 4180 1362 4180Z" fill-rule="evenodd" clip-rule="evenodd"/></clipPath><clipPath id="clip32"><rect x="-3" y="-3" width="1487" height="344"/></clipPath><clipPath id="clip33"><rect x="0" y="0" width="1481" height="338"/></clipPath></defs><g clip-path="url(#clip8)" transform="translate(-1362 -138)"><g clip-path="url(#clip9)"><g clip-path="url(#clip10)" filter="url(#fx0)" transform="translate(1878 137)"><g clip-path="url(#clip11)"><path d="M22.2457 71.2319C22.2457 44.1776 44.1775 22.2457 71.2318 22.2457L1409.48 22.2457C1436.53 22.2457 1458.47 44.1776 1458.47 71.2319L1458.47 267.169C1458.47 294.224 1436.53 316.155 1409.48 316.155L71.2318 316.155C44.1775 316.155 22.2457 294.224 22.2457 267.169Z" stroke="#000000" stroke-width="5" stroke-miterlimit="8" fill="#E6CCB2" fill-rule="evenodd"/></g></g></g><path d="M1890.5 198.001C1890.5 171.215 1912.21 149.5 1939 149.5L3264 149.5C3290.79 149.5 3312.5 171.215 3312.5 198.001L3312.5 391.999C3312.5 418.785 3290.79 440.5 3264 440.5L1939 440.5C1912.21 440.5 1890.5 418.785 1890.5 391.999Z" stroke="#000000" stroke-width="4.58333" stroke-miterlimit="8" fill="#E6CCB2" fill-rule="evenodd"/><text font-family="Calibri,Calibri_MSFontService,sans-serif" font-weight="400" font-size="83" transform="matrix(1 0 0 1 2155.68 322)">Membaca<tspan font-size="83" x="354.063" y="0">beberapa</tspan><tspan font-size="83" x="693.802" y="0">paper</tspan></text><path d="M1362 3940.52 1509.23 3940.52 1509.23 149 1693.72 149 1693.72 3940.52 1840.95 3940.52 1601.48 4180Z" fill="url(#fill12)" fill-rule="evenodd"/><g clip-path="url(#clip13)"><g clip-path="url(#clip14)" filter="url(#fx1)" transform="translate(1878 605)"><g clip-path="url(#clip15)"><path d="M22.2457 71.2316C22.2457 44.1773 44.1775 22.2455 71.2318 22.2455L1409.48 22.2455C1436.53 22.2455 1458.47 44.1773 1458.47 71.2316L1458.47 267.17C1458.47 294.224 1436.53 316.156 1409.48 316.156L71.2318 316.156C44.1775 316.156 22.2457 294.224 22.2457 267.17Z" stroke="#000000" stroke-width="5" stroke-miterlimit="8" fill="#FDB0D4" fill-rule="evenodd"/></g></g></g><path d="M1890.5 666.001C1890.5 639.215 1912.21 617.5 1939 617.5L3264 617.5C3290.79 617.5 3312.5 639.215 3312.5 666.001L3312.5 859.999C3312.5 886.785 3290.79 908.5 3264 908.5L1939 908.5C1912.21 908.5 1890.5 886.785 1890.5 859.999Z" stroke="#000000" stroke-width="4.58333" stroke-miterlimit="8" fill="#FDB0D4" fill-rule="evenodd"/><text font-family="Calibri,Calibri_MSFontService,sans-serif" font-weight="400" font-size="83" transform="matrix(1 0 0 1 2289.17 790)">Merangkum<tspan font-size="83" x="427.969" y="0">Paper</tspan></text><g clip-path="url(#clip16)"><g clip-path="url(#clip17)" filter="url(#fx2)" transform="translate(1886 1072)"><g clip-path="url(#clip18)"><path d="M22.2457 71.2317C22.2457 44.1775 44.1775 22.2457 71.2316 22.2457L1410.49 22.2457C1437.54 22.2457 1459.48 44.1775 1459.48 71.2317L1459.48 267.169C1459.48 294.224 1437.54 316.156 1410.49 316.156L71.2316 316.156C44.1775 316.156 22.2457 294.224 22.2457 267.169Z" stroke="#000000" stroke-width="5" stroke-miterlimit="8" fill="#FFF6B2" fill-rule="evenodd"/></g></g></g><path d="M1898.5 1133C1898.5 1106.21 1920.21 1084.5 1947 1084.5L3273 1084.5C3299.79 1084.5 3321.5 1106.21 3321.5 1133L3321.5 1327C3321.5 1353.79 3299.79 1375.5 3273 1375.5L1947 1375.5C1920.21 1375.5 1898.5 1353.79 1898.5 1327Z" stroke="#000000" stroke-width="4.58333" stroke-miterlimit="8" fill="#FFF6B2" fill-rule="evenodd"/><text font-family="Calibri,Calibri_MSFontService,sans-serif" font-weight="400" font-size="83" transform="matrix(1 0 0 1 1958.7 1208)">Memilih<tspan font-size="83" x="296.771" y="0">Topik</tspan><tspan font-size="83" x="499.01" y="0">Paper yang Akan </tspan>Dibuat<tspan font-size="83" x="423.385" y="99">Prototypenya</tspan></text><g clip-path="url(#clip19)"><g clip-path="url(#clip20)" filter="url(#fx3)" transform="translate(1886 1540)"><g clip-path="url(#clip21)"><path d="M22.2457 71.2316C22.2457 44.1773 44.1775 22.2455 71.2316 22.2455L1410.49 22.2455C1437.54 22.2455 1459.48 44.1773 1459.48 71.2316L1459.48 267.17C1459.48 294.224 1437.54 316.156 1410.49 316.156L71.2316 316.156C44.1775 316.156 22.2457 294.224 22.2457 267.17Z" stroke="#000000" stroke-width="5" stroke-miterlimit="8" fill="#FFCC99" fill-rule="evenodd"/></g></g></g><path d="M1898.5 1601C1898.5 1574.21 1920.21 1552.5 1947 1552.5L3273 1552.5C3299.79 1552.5 3321.5 1574.21 3321.5 1601L3321.5 1795C3321.5 1821.79 3299.79 1843.5 3273 1843.5L1947 1843.5C1920.21 1843.5 1898.5 1821.79 1898.5 1795Z" stroke="#000000" stroke-width="4.58333" stroke-miterlimit="8" fill="#FFCC99" fill-rule="evenodd"/><text font-family="Calibri,Calibri_MSFontService,sans-serif" font-weight="400" font-size="83" transform="matrix(1 0 0 1 1963.64 1725)">Membuat<tspan font-size="83" x="350.625" y="0">Desain/</tspan><tspan font-size="83" x="609.01" y="0">Algoritma</tspan><tspan font-size="83" x="957.344" y="0">Prototype</tspan></text><g clip-path="url(#clip22)"><g clip-path="url(#clip23)" filter="url(#fx4)" transform="translate(1886 2023)"><g clip-path="url(#clip24)"><path d="M22.2457 71.2316C22.2457 44.1773 44.1775 22.2455 71.2316 22.2455L1410.49 22.2455C1437.54 22.2455 1459.48 44.1773 1459.48 71.2316L1459.48 267.17C1459.48 294.224 1437.54 316.156 1410.49 316.156L71.2316 316.156C44.1775 316.156 22.2457 294.224 22.2457 267.17Z" stroke="#000000" stroke-width="5" stroke-miterlimit="8" fill="#99FF99" fill-rule="evenodd"/></g></g></g><path d="M1898.5 2084C1898.5 2057.21 1920.21 2035.5 1947 2035.5L3273 2035.5C3299.79 2035.5 3321.5 2057.21 3321.5 2084L3321.5 2278C3321.5 2304.79 3299.79 2326.5 3273 2326.5L1947 2326.5C1920.21 2326.5 1898.5 2304.79 1898.5 2278Z" stroke="#000000" stroke-width="4.58333" stroke-miterlimit="8" fill="#99FF99" fill-rule="evenodd"/><text font-family="Calibri,Calibri_MSFontService,sans-serif" font-weight="400" font-size="83" transform="matrix(1 0 0 1 1993.36 2208)">Membuat<tspan font-size="83" x="350.625" y="0">Prototype dalam Bahasa C</tspan></text><g clip-path="url(#clip25)"><g clip-path="url(#clip26)" filter="url(#fx5)" transform="translate(1878 2506)"><g clip-path="url(#clip27)"><path d="M22.2457 71.2321C22.2457 44.1777 44.1775 22.2458 71.2318 22.2458L1409.48 22.2458C1436.53 22.2458 1458.47 44.1777 1458.47 71.2321L1458.47 267.169C1458.47 294.224 1436.53 316.156 1409.48 316.156L71.2318 316.156C44.1775 316.156 22.2457 294.224 22.2457 267.169Z" stroke="#000000" stroke-width="5" stroke-miterlimit="8" fill="#9898FF" fill-rule="evenodd"/></g></g></g><path d="M1890.5 2567C1890.5 2540.22 1912.21 2518.5 1939 2518.5L3264 2518.5C3290.79 2518.5 3312.5 2540.22 3312.5 2567L3312.5 2761C3312.5 2787.79 3290.79 2809.5 3264 2809.5L1939 2809.5C1912.21 2809.5 1890.5 2787.79 1890.5 2761Z" stroke="#000000" stroke-width="4.58333" stroke-miterlimit="8" fill="#9898FF" fill-rule="evenodd"/><text font-family="Calibri,Calibri_MSFontService,sans-serif" font-weight="400" font-size="83" transform="matrix(1 0 0 1 2132.19 2691)">Melakukan<tspan font-size="83" x="390.156" y="0">Revisi</tspan><tspan font-size="83" x="602.135" y="0">Prototype</tspan></text><g clip-path="url(#clip28)"><g clip-path="url(#clip29)" filter="url(#fx6)" transform="translate(1878 2990)"><g clip-path="url(#clip30)"><path d="M22.2457 71.2321C22.2457 44.1777 44.1775 22.2458 71.2318 22.2458L1409.48 22.2458C1436.53 22.2458 1458.47 44.1777 1458.47 71.2321L1458.47 267.169C1458.47 294.224 1436.53 316.156 1409.48 316.156L71.2318 316.156C44.1775 316.156 22.2457 294.224 22.2457 267.169Z" stroke="#000000" stroke-width="5" stroke-miterlimit="8" fill="#8CE1F9" fill-rule="evenodd"/></g></g></g><path d="M1890.5 3051C1890.5 3024.22 1912.21 3002.5 1939 3002.5L3264 3002.5C3290.79 3002.5 3312.5 3024.22 3312.5 3051L3312.5 3245C3312.5 3271.79 3290.79 3293.5 3264 3293.5L1939 3293.5C1912.21 3293.5 1890.5 3271.79 1890.5 3245Z" stroke="#000000" stroke-width="4.58333" stroke-miterlimit="8" fill="#8CE1F9" fill-rule="evenodd"/><text font-family="Calibri,Calibri_MSFontService,sans-serif" font-weight="400" font-size="83" transform="matrix(1 0 0 1 2273.7 3175)">Finalisasi<tspan font-size="83" x="319.115" y="0">Prototype</tspan></text><g clip-path="url(#clip31)"><g clip-path="url(#clip32)" filter="url(#fx7)" transform="translate(1878 3473)"><g clip-path="url(#clip33)"><path d="M22.2457 71.2321C22.2457 44.1777 44.1775 22.2458 71.2318 22.2458L1409.48 22.2458C1436.53 22.2458 1458.47 44.1777 1458.47 71.2321L1458.47 267.169C1458.47 294.224 1436.53 316.156 1409.48 316.156L71.2318 316.156C44.1775 316.156 22.2457 294.224 22.2457 267.169Z" stroke="#000000" stroke-width="5" stroke-miterlimit="8" fill="#FF9999" fill-rule="evenodd"/></g></g></g><path d="M1890.5 3534C1890.5 3507.22 1912.21 3485.5 1939 3485.5L3264 3485.5C3290.79 3485.5 3312.5 3507.22 3312.5 3534L3312.5 3728C3312.5 3754.79 3290.79 3776.5 3264 3776.5L1939 3776.5C1912.21 3776.5 1890.5 3754.79 1890.5 3728Z" stroke="#000000" stroke-width="4.58333" stroke-miterlimit="8" fill="#FF9999" fill-rule="evenodd"/><text font-family="Calibri,Calibri_MSFontService,sans-serif" font-weight="400" font-size="83" transform="matrix(1 0 0 1 2249.64 3658)">Penyusunan<tspan font-size="83" x="429.115" y="0">Laporan</tspan></text><rect x="1510" y="261" width="185" height="45" fill="#E6CCB2"/><rect x="1510" y="740" width="185" height="44" fill="#FDB0D4"/><rect x="1510" y="1207" width="185" height="45" fill="#FFF6B2"/><rect x="1511" y="1675" width="185" height="44" fill="#FFCC99"/><rect x="1508" y="2158" width="184" height="45" fill="#99FF99"/><rect x="1508" y="3124" width="185" height="44" fill="#8CE1F9"/><rect x="1510" y="2642" width="185" height="45" fill="#9898FF"/><rect x="1508" y="3608" width="187" height="45" fill="#FF9999"/></g></svg>