<svg width="1653" height="993" xmlns="http://www.w3.org/2000/svg" xmlns:xlink="http://www.w3.org/1999/xlink" overflow="hidden"><defs><clipPath id="clip0"><rect x="1439" y="245" width="1653" height="993"/></clipPath><clipPath id="clip1"><rect x="1440" y="245" width="1650" height="990"/></clipPath><clipPath id="clip2"><rect x="1440" y="245" width="1650" height="990"/></clipPath><clipPath id="clip3"><rect x="1668" y="415" width="1375" height="620"/></clipPath><clipPath id="clip4"><rect x="1440" y="245" width="1650" height="990"/></clipPath><clipPath id="clip5"><rect x="1440" y="245" width="1650" height="990"/></clipPath><clipPath id="clip6"><rect x="1440" y="245" width="1650" height="990"/></clipPath><clipPath id="clip7"><rect x="1440" y="245" width="1650" height="990"/></clipPath><clipPath id="clip8"><rect x="1440" y="245" width="1650" height="990"/></clipPath><clipPath id="clip9"><rect x="1440" y="245" width="1650" height="990"/></clipPath><clipPath id="clip10"><rect x="1440" y="245" width="1650" height="990"/></clipPath><clipPath id="clip11"><rect x="1440" y="245" width="1650" height="990"/></clipPath><clipPath id="clip12"><rect x="1440" y="245" width="1650" height="990"/></clipPath><clipPath id="clip13"><rect x="1440" y="245" width="1650" height="990"/></clipPath><clipPath id="clip14"><rect x="1440" y="245" width="1650" height="990"/></clipPath><clipPath id="clip15"><rect x="1440" y="245" width="1650" height="990"/></clipPath><clipPath id="clip16"><rect x="1440" y="245" width="1650" height="990"/></clipPath><clipPath id="clip17"><rect x="1440" y="245" width="1650" height="990"/></clipPath><clipPath id="clip18"><rect x="1440" y="245" width="1650" height="990"/></clipPath><clipPath id="clip19"><rect x="1440" y="245" width="1650" height="990"/></clipPath><clipPath id="clip20"><rect x="1440" y="245" width="1650" height="990"/></clipPath><clipPath id="clip21"><rect x="1440" y="245" width="1650" height="990"/></clipPath><clipPath id="clip22"><rect x="1440" y="245" width="1650" height="990"/></clipPath><clipPath id="clip23"><rect x="1440" y="245" width="1650" height="990"/></clipPath><clipPath id="clip24"><rect x="1440" y="245" width="1650" height="990"/></clipPath><clipPath id="clip25"><rect x="1440" y="245" width="1650" height="990"/></clipPath></defs><g clip-path="url(#clip0)" transform="translate(-1439 -245)"><rect x="1440" y="246" width="1650" height="990" fill="#FFFFFF"/><g clip-path="url(#clip1)"><path d="M1668.5 929.531 3039.5 929.531M1668.5 826.527 3039.5 826.527M1668.5 723.524 3039.5 723.524M1668.5 621.521 3039.5 621.521M1668.5 518.517 3039.5 518.517M1668.5 415.5 3039.5 415.5" stroke="#D9D9D9" stroke-width="3.4375" stroke-linejoin="round" stroke-miterlimit="10" fill="none"/></g><g clip-path="url(#clip2)"><path d="M1668.5 1032.5 3039.5 1032.5" stroke="#D9D9D9" stroke-width="3.4375" stroke-linejoin="round" stroke-miterlimit="10" fill="none" fill-rule="evenodd"/></g><g clip-path="url(#clip3)"><path d="M1737 1027 1874.06 1012.03 2011.07 986.032 2148.07 950.031 2285.07 904.03 2423.08 847.028 2560.08 781.026 2697.09 703.023 2834.09 616.02 2971 519" stroke="#4472C4" stroke-width="10.3125" stroke-linecap="round" stroke-linejoin="round" stroke-miterlimit="10" fill="none"/></g><g clip-path="url(#clip4)"><text fill="#595959" font-family="Calibri,Calibri_MSFontService,sans-serif" font-weight="400" font-size="41" transform="matrix(1 0 0 1 1609.09 1044)">0</text></g><g clip-path="url(#clip5)"><text fill="#595959" font-family="Calibri,Calibri_MSFontService,sans-serif" font-weight="400" font-size="41" transform="matrix(1 0 0 1 1588.19 941)">20</text></g><g clip-path="url(#clip6)"><text fill="#595959" font-family="Calibri,Calibri_MSFontService,sans-serif" font-weight="400" font-size="41" transform="matrix(1 0 0 1 1588.19 838)">40</text></g><g clip-path="url(#clip7)"><text fill="#595959" font-family="Calibri,Calibri_MSFontService,sans-serif" font-weight="400" font-size="41" transform="matrix(1 0 0 1 1588.19 736)">60</text></g><g clip-path="url(#clip8)"><text fill="#595959" font-family="Calibri,Calibri_MSFontService,sans-serif" font-weight="400" font-size="41" transform="matrix(1 0 0 1 1588.19 633)">80</text></g><g clip-path="url(#clip9)"><text fill="#595959" font-family="Calibri,Calibri_MSFontService,sans-serif" font-weight="400" font-size="41" transform="matrix(1 0 0 1 1567.29 530)">100</text></g><g clip-path="url(#clip10)"><text fill="#595959" font-family="Calibri,Calibri_MSFontService,sans-serif" font-weight="400" font-size="41" transform="matrix(1 0 0 1 1567.29 427)">120</text></g><g clip-path="url(#clip11)"><text fill="#595959" font-family="Calibri,Calibri_MSFontService,sans-serif" font-weight="400" font-size="41" transform="matrix(1 0 0 1 1726.39 1097)">1</text></g><g clip-path="url(#clip12)"><text fill="#595959" font-family="Calibri,Calibri_MSFontService,sans-serif" font-weight="400" font-size="41" transform="matrix(1 0 0 1 1863.56 1097)">2</text></g><g clip-path="url(#clip13)"><text fill="#595959" font-family="Calibri,Calibri_MSFontService,sans-serif" font-weight="400" font-size="41" transform="matrix(1 0 0 1 2000.72 1097)">3</text></g><g clip-path="url(#clip14)"><text fill="#595959" font-family="Calibri,Calibri_MSFontService,sans-serif" font-weight="400" font-size="41" transform="matrix(1 0 0 1 2137.88 1097)">4</text></g><g clip-path="url(#clip15)"><text fill="#595959" font-family="Calibri,Calibri_MSFontService,sans-serif" font-weight="400" font-size="41" transform="matrix(1 0 0 1 2275.05 1097)">5</text></g><g clip-path="url(#clip16)"><text fill="#595959" font-family="Calibri,Calibri_MSFontService,sans-serif" font-weight="400" font-size="41" transform="matrix(1 0 0 1 2412.21 1097)">6</text></g><g clip-path="url(#clip17)"><text fill="#595959" font-family="Calibri,Calibri_MSFontService,sans-serif" font-weight="400" font-size="41" transform="matrix(1 0 0 1 2549.37 1097)">7</text></g><g clip-path="url(#clip18)"><text fill="#595959" font-family="Calibri,Calibri_MSFontService,sans-serif" font-weight="400" font-size="41" transform="matrix(1 0 0 1 2686.54 1097)">8</text></g><g clip-path="url(#clip19)"><text fill="#595959" font-family="Calibri,Calibri_MSFontService,sans-serif" font-weight="400" font-size="41" transform="matrix(1 0 0 1 2823.7 1097)">9</text></g><g clip-path="url(#clip20)"><text fill="#595959" font-family="Calibri,Calibri_MSFontService,sans-serif" font-weight="400" font-size="41" transform="matrix(1 0 0 1 2950.41 1097)">10</text></g><g clip-path="url(#clip21)"><text fill="#595959" font-family="Calibri,Calibri_MSFontService,sans-serif" font-weight="400" font-size="46" transform="matrix(6.12323e-17 -1 1 6.12323e-17 1541.6 773)">O(n</text></g><g clip-path="url(#clip22)"><text fill="#595959" font-family="Calibri,Calibri_MSFontService,sans-serif" font-weight="400" font-size="31" transform="matrix(6.12323e-17 -1 1 6.12323e-17 1527.6 705)">2</text></g><g clip-path="url(#clip23)"><text fill="#595959" font-family="Calibri,Calibri_MSFontService,sans-serif" font-weight="400" font-size="46" transform="matrix(6.12323e-17 -1 1 6.12323e-17 1541.6 689)">)</text></g><g clip-path="url(#clip24)"><text fill="#595959" font-family="Calibri,Calibri_MSFontService,sans-serif" font-weight="400" font-size="46" transform="matrix(1 0 0 1 2342.04 1167)">n</text></g><g clip-path="url(#clip25)"><text fill="#595959" font-family="Calibri,Calibri_MSFontService,sans-serif" font-weight="400" font-size="64" transform="matrix(1 0 0 1 2009.07 341)">Grafik Kompleksitas</text></g><rect x="1440.5" y="246.5" width="1650" height="990" stroke="#D9D9D9" stroke-width="3.4375" stroke-linejoin="round" stroke-miterlimit="10" fill="none"/></g></svg>